{
    "asset" : {
        "generator" : "Khronos glTF Blender I/O v1.7.33",
        "version" : "2.0"
    },
    "scene" : 0,
    "scenes" : [
        {
            "name" : "Scene",
            "nodes" : [
                0
            ]
        }
    ],
    "nodes" : [
        {
            "mesh" : 0,
            "name" : "Plane",
            "scale" : [
                147.39093017578125,
                147.39093017578125,
                147.39093017578125
            ]
        }
    ],
    "meshes" : [
        {
            "name" : "Plane.001",
            "primitives" : [
                {
                    "attributes" : {
                        "POSITION" : 0,
                        "NORMAL" : 1,
                        "TEXCOORD_0" : 2
                    },
                    "indices" : 3
                }
            ]
        }
    ],
    "accessors" : [
        {
            "bufferView" : 0,
            "componentType" : 5126,
            "count" : 9660,
            "max" : [
                1,
                0.9776946902275085,
                1
            ],
            "min" : [
                -1,
                0,
                -1
            ],
            "type" : "VEC3"
        },
        {
            "bufferView" : 1,
            "componentType" : 5126,
            "count" : 9660,
            "type" : "VEC3"
        },
        {
            "bufferView" : 2,
            "componentType" : 5126,
            "count" : 9660,
            "type" : "VEC2"
        },
        {
            "bufferView" : 3,
            "componentType" : 5123,
            "count" : 24576,
            "type" : "SCALAR"
        }
    ],
    "bufferViews" : [
        {
            "buffer" : 0,
            "byteLength" : 115920,
            "byteOffset" : 0
        },
        {
            "buffer" : 0,
            "byteLength" : 115920,
            "byteOffset" : 115920
        },
        {
            "buffer" : 0,
            "byteLength" : 77280,
            "byteOffset" : 231840
        },
        {
            "buffer" : 0,
            "byteLength" : 49152,
            "byteOffset" : 309120
        }
    ],
    "buffers" : [
        {
            "byteLength" : 358272,
            "uri" : "data:application/octet-stream;base64,"
        }
    ]
}
